<svg version="1.1" viewBox="0.0 0.0 960.0 540.0" fill="none" stroke="none" stroke-linecap="square" stroke-miterlimit="10" xmlns:xlink="http://www.w3.org/1999/xlink" xmlns="http://www.w3.org/2000/svg"><clipPath id="p.0"><path d="m0 0l960.0 0l0 540.0l-960.0 0l0 -540.0z" clip-rule="nonzero"/></clipPath><g clip-path="url(#p.0)"><path fill="#ffffff" d="m0 0l960.0 0l0 540.0l-960.0 0z" fill-rule="evenodd"/><path fill="#000000" fill-opacity="0.0" d="m385.94226 410.01443l0.94488525 -252.28346" fill-rule="evenodd"/><path stroke="#6aa84f" stroke-width="8.0" stroke-linejoin="round" stroke-linecap="butt" d="m385.94226 410.01443l0.94488525 -252.28346" fill-rule="evenodd"/><path fill="#000000" fill-opacity="0.0" d="m385.94226 140.87796l153.82678 -0.94488525" fill-rule="evenodd"/><path stroke="#6aa84f" stroke-width="8.0" stroke-linejoin="round" stroke-linecap="butt" d="m385.94226 140.87796l153.82678 -0.94488525" fill-rule="evenodd"/><path fill="#000000" fill-opacity="0.0" d="m423.5643 410.01443l0 -219.08661" fill-rule="evenodd"/><path stroke="#3c78d8" stroke-width="8.0" stroke-linejoin="round" stroke-linecap="butt" d="m423.5643 410.01443l0 -219.08661" fill-rule="evenodd"/><path fill="#000000" fill-opacity="0.0" d="m440.16272 157.88846l124.409485 -0.15748596" fill-rule="evenodd"/><path stroke="#351c75" stroke-width="8.0" stroke-linejoin="round" stroke-linecap="butt" d="m440.16272 157.88846l124.409485 -0.15748596" fill-rule="evenodd"/><path fill="#000000" fill-opacity="0.0" d="m532.0079 168.11548l1.102356 53.10237" fill-rule="evenodd"/><path stroke="#351c75" stroke-width="8.0" stroke-linejoin="round" stroke-linecap="butt" d="m532.0079 168.11548l1.102356 53.10237" fill-rule="evenodd"/><path fill="#000000" fill-opacity="0.0" d="m449.01575 253.82545l82.99213 -0.94487" fill-rule="evenodd"/><path stroke="#3c78d8" stroke-width="12.0" stroke-linejoin="round" stroke-linecap="butt" d="m449.01575 253.82545l82.99213 -0.94487" fill-rule="evenodd"/></g></svg>